<?xml version="1.0" encoding="UTF-8" standalone="no"?>
<!DOCTYPE svg PUBLIC "-//W3C//DTD SVG 1.1//EN" "http://www.w3.org/Graphics/SVG/1.1/DTD/svg11.dtd">
<svg xmlns="http://www.w3.org/2000/svg" version="1.1" viewBox="0.00 0.00 296.00 69.00">
<g fill="#eaeaea">
<path d="
  M 88.07 31.55
  C 88.06 38.25 91.62 43.33 98.66 41.31
  A 0.86 0.86 0.0 0 1 99.75 42.14
  L 99.75 48.70
  A 1.45 1.45 0.0 0 1 98.49 50.13
  C 86.16 51.76 79.50 43.04 79.52 31.54
  C 79.54 20.04 86.23 11.34 98.55 13.01
  A 1.45 1.45 0.0 0 1 99.81 14.45
  L 99.79 21.01
  A 0.86 0.86 0.0 0 1 98.69 21.83
  C 91.66 19.79 88.08 24.86 88.07 31.55
  Z"
/>
<path d="
  M 116.45 12.76
  C 127.02 12.72 129.62 23.15 129.65 31.53
  C 129.68 39.91 127.16 50.36 116.60 50.40
  C 106.03 50.44 103.43 40.02 103.40 31.63
  C 103.37 23.25 105.89 12.80 116.45 12.76
  Z
  M 116.4500 20.7500
  A 10.93 4.70 -90.0 0 0 111.7500 31.6800
  A 10.93 4.70 -90.0 0 0 116.4500 42.6100
  A 10.93 4.70 -90.0 0 0 121.1500 31.6800
  A 10.93 4.70 -90.0 0 0 116.4500 20.7500
  Z"
/>
<path d="
  M 135.66 48.68
  L 135.66 40.78
  A 0.13 0.13 0.0 0 1 135.85 40.67
  Q 139.82 42.85 142.20 42.75
  C 145.49 42.61 146.58 39.10 143.94 36.93
  C 138.78 32.70 133.46 28.75 134.48 21.57
  C 135.73 12.83 144.41 11.20 151.39 14.13
  A 0.33 0.32 -79.3 0 1 151.59 14.43
  L 151.59 21.99
  A 0.25 0.25 0.0 0 1 151.23 22.21
  C 148.60 20.81 142.64 18.58 142.56 22.94
  Q 142.53 24.78 143.73 25.79
  C 149.08 30.27 154.95 34.17 153.60 41.78
  C 152.10 50.20 142.79 52.02 135.86 49.00
  A 0.36 0.34 -78.5 0 1 135.66 48.68
  Z"
/>
<circle cx="255.00" cy="17.52" r="4.12"/>
<path d="
  M 166.53 13.72
  Q 171.10 13.76 174.93 13.64
  A 1.20 1.20 0.0 0 1 176.17 14.84
  L 176.17 21.01
  A 1.04 1.04 0.0 0 1 175.13 22.05
  L 171.10 22.05
  A 0.51 0.51 0.0 0 0 170.59 22.56
  L 170.59 48.83
  A 0.77 0.77 0.0 0 1 169.80 49.59
  Q 168.15 49.54 166.55 49.54
  Q 164.96 49.54 163.31 49.60
  A 0.77 0.77 0.0 0 1 162.52 48.84
  L 162.49 22.57
  A 0.51 0.51 0.0 0 0 161.97 22.06
  L 157.94 22.06
  A 1.04 1.04 0.0 0 1 156.90 21.02
  L 156.90 14.85
  A 1.20 1.20 0.0 0 1 158.13 13.65
  Q 161.97 13.77 166.53 13.72
  Z"
/>
<path d="
  M 191.21 13.72
  Q 193.47 13.72 195.39 13.80
  A 0.51 0.50 83.3 0 1 195.85 14.17
  L 204.93 48.46
  A 0.89 0.88 82.6 0 1 204.08 49.57
  L 198.10 49.57
  A 1.42 1.40 -7.1 0 1 196.73 48.52
  L 195.61 44.30
  A 0.87 0.87 0.0 0 0 194.78 43.65
  Q 194.03 43.65 191.22 43.65
  Q 188.41 43.65 187.67 43.66
  A 0.87 0.87 0.0 0 0 186.84 44.30
  L 185.72 48.53
  A 1.42 1.40 7.0 0 1 184.35 49.58
  L 178.37 49.58
  A 0.89 0.88 -82.7 0 1 177.52 48.47
  L 186.57 14.17
  A 0.51 0.50 -83.4 0 1 187.03 13.81
  Q 188.94 13.72 191.21 13.72
  Z
  M 191.22 37.08
  Q 192.15 37.07 193.39 37.13
  A 0.37 0.37 0.0 0 0 193.77 36.69
  Q 191.06 22.95 190.96 22.95
  Q 190.89 22.95 188.66 36.78
  A 0.37 0.37 0.0 0 0 189.06 37.21
  Q 190.30 37.10 191.22 37.08
  Z"
/>
<path d="
  M 233.67 43.64
  Q 230.86 43.64 230.11 43.64
  A 0.87 0.87 0.0 0 0 229.28 44.29
  L 228.16 48.51
  A 1.42 1.40 7.1 0 1 226.79 49.56
  L 220.80 49.56
  A 0.89 0.88 -82.6 0 1 219.95 48.45
  L 229.04 14.15
  A 0.51 0.50 -83.3 0 1 229.51 13.78
  Q 231.42 13.70 233.69 13.71
  Q 235.95 13.71 237.87 13.79
  A 0.51 0.50 83.4 0 1 238.33 14.16
  L 247.37 48.47
  A 0.89 0.88 82.7 0 1 246.52 49.58
  L 240.54 49.57
  A 1.42 1.40 -7.0 0 1 239.17 48.52
  L 238.05 44.29
  A 0.87 0.87 0.0 0 0 237.22 43.65
  Q 236.48 43.64 233.67 43.64
  Z
  M 233.47 37.09
  Q 234.40 37.11 235.64 37.22
  A 0.37 0.37 0.0 0 0 236.04 36.80
  Q 233.84 22.95 233.76 22.95
  Q 233.66 22.95 230.92 36.70
  A 0.37 0.37 0.0 0 0 231.30 37.14
  Q 232.55 37.08 233.47 37.09
  Z"
/>
<path d="
  M 274.38 33.88
  A 0.26 0.26 0.0 0 0 273.88 33.98
  L 273.88 48.76
  A 0.80 0.80 0.0 0 1 273.08 49.56
  L 266.69 49.56
  A 0.79 0.78 90.0 0 1 265.91 48.77
  L 265.91 14.20
  A 0.44 0.44 0.0 0 1 266.34 13.76
  C 274.11 13.64 286.30 12.32 287.57 23.25
  Q 288.28 29.33 283.16 33.28
  A 0.57 0.56 60.4 0 0 282.98 33.94
  L 289.05 49.36
  A 0.14 0.14 0.0 0 1 288.92 49.55
  L 280.86 49.55
  A 0.46 0.44 -10.4 0 1 280.44 49.27
  L 274.38 33.88
  Z
  M 273.89 21.49
  L 273.91 28.57
  A 0.63 0.63 0.0 0 0 274.54 29.20
  L 274.76 29.20
  A 4.51 4.03 -0.1 0 0 279.26 25.17
  L 279.26 24.89
  A 4.51 4.03 -0.1 0 0 274.74 20.86
  L 274.52 20.86
  A 0.63 0.63 0.0 0 0 273.89 21.49
  Z"
/>
<path d="
  M 8.35 42.00
  Q 8.31 41.45 8.98 40.97
  Q 18.07 34.50 28.32 32.07
  Q 36.78 30.05 47.24 28.48
  C 56.31 27.12 65.30 23.52 71.00 15.77
  A 0.51 0.51 0.0 0 1 71.91 16.01
  Q 72.83 23.46 68.80 29.02
  C 66.66 31.98 63.65 32.82 60.18 33.45
  C 53.48 34.68 46.44 34.98 38.72 34.99
  Q 24.27 35.02 10.65 40.65
  Q 8.69 41.46 8.57 42.01
  A 0.11 0.11 0.0 0 1 8.35 42.00
  Z"
/>
<rect x="-3.91" y="-12.38" transform="translate(255.00,37.19) rotate(-0.1)" width="7.82" height="24.76" rx="0.66"/>
<path d="
  M 9.28 43.20
  L 9.27 43.18
  A 0.50 0.49 67.4 0 1 9.52 42.56
  Q 16.62 39.21 25.80 37.44
  Q 30.12 36.61 38.74 36.69
  C 47.90 36.78 55.68 36.27 64.78 33.87
  A 1.19 1.19 0.0 0 1 66.12 35.62
  L 64.09 39.13
  A 4.38 4.38 0.0 0 1 61.12 41.25
  Q 57.61 41.93 53.75 41.92
  Q 44.08 41.88 34.03 40.84
  Q 22.01 39.59 9.84 43.47
  A 0.45 0.45 0.0 0 1 9.28 43.20
  Z"
/>
<path d="
  M 6.77 45.20
  C 8.28 44.56 9.78 44.54 11.33 44.16
  Q 23.95 41.05 32.76 42.25
  Q 46.37 44.12 60.05 43.12
  A 0.35 0.35 0.0 0 1 60.27 43.76
  Q 54.39 47.79 47.84 48.26
  Q 45.68 48.42 36.45 46.49
  C 25.35 44.17 15.41 43.73 4.69 47.68
  A 0.25 0.24 -76.1 0 1 4.45 47.27
  L 6.44 45.41
  A 1.21 0.97 6.3 0 1 6.77 45.20
  Z"
/>
</g>
</svg>
